<svg width="109" height="114" viewBox="0 0 109 114" fill="none" xmlns="http://www.w3.org/2000/svg">
<g id="Pattern">
<g id="Group">
<g id="Group_2">
<path id="Vector" d="M16.9278 65.7423C28.5585 83.5881 51.81 100.267 77.713 95.6154C78.419 95.4916 78.8532 94.8061 78.8192 94.2084C78.3842 87.8421 74.3184 82.2227 70.5834 77.3346C66.1288 71.4873 61.1739 66.4764 54.5677 62.5619C48.4799 58.9511 42.1251 56.9948 34.4994 56.5848C30.6826 56.3717 26.8053 56.4653 22.9403 56.6321C21.2159 56.7139 19.4727 56.8048 17.7373 56.9117C16.5198 56.9858 15.0873 56.8075 13.9401 57.3627C13.2631 57.6903 13.037 58.3742 13.2558 58.9221C14.1642 61.3746 15.7451 63.4423 16.9278 65.7423C17.5869 67.0082 19.9454 65.8866 19.2786 64.6047C18.0958 62.3047 16.5149 60.237 15.5954 57.8096C15.3636 58.3377 15.1318 58.8659 14.9111 59.369C15.6821 58.9958 17.8718 59.2039 18.8435 59.1496C20.4694 59.0561 22.1031 58.9787 23.7179 58.9103C27.2011 58.7698 30.6965 58.7025 34.1347 58.9007C41.4804 59.3076 47.5098 61.2629 53.3617 64.7699C59.4728 68.4289 64.0222 73.0813 68.1873 78.4744C71.8213 83.1538 75.8626 88.6267 76.2874 94.78C76.6598 94.3026 77.0212 93.8504 77.3936 93.373C64.9197 95.6064 53.0188 92.2138 43.2108 86.7189C33.437 81.2469 25.1305 73.5792 19.2708 64.5887C18.4957 63.4186 16.1372 64.5402 16.9278 65.7423Z" fill="#DDDDDD"/>
</g>
</g>
<g id="Group_3">
<g id="Group_4">
<path id="Vector_2" d="M16.4067 60.5868C28.0884 64.9175 38.9991 70.5325 49.3616 76.7893C53.8223 79.4839 58.4277 81.95 62.9889 84.5166C67.7484 87.2053 72.5525 90.1299 75.7311 94.3958C76.5893 95.5455 78.6084 93.9146 77.7503 92.7649C74.6759 88.6664 70.1175 85.722 65.5518 83.098C60.6925 80.2992 55.7184 77.6946 50.9298 74.8021C40.3768 68.4395 29.2879 62.7918 17.4047 58.3804C15.9374 57.8425 14.9738 60.0719 16.4067 60.5868Z" fill="#DDDDDD"/>
</g>
</g>
<g id="Group_5">
<g id="Group_6">
<path id="Vector_3" d="M70.0823 91.3046C57.4889 87.2963 44.5226 83.4289 34.2162 75.897C33.0285 75.0257 31.4869 77.0198 32.6745 77.8911C43.1261 85.531 56.3127 89.4701 69.0921 93.5271C70.5737 93.9986 71.545 91.7853 70.0823 91.3046Z" fill="#DDDDDD"/>
</g>
</g>
<g id="Group_7">
<g id="Group_8">
<path id="Vector_4" d="M60.1139 74.2591C54.3041 69.8799 47.4281 67.0864 40.4172 64.3978C38.9876 63.8417 38.024 66.0711 39.4459 66.6111C46.2896 69.242 52.9342 71.989 58.5911 76.2441C59.7489 77.1497 61.2828 75.1396 60.1139 74.2591Z" fill="#DDDDDD"/>
</g>
</g>
<g id="Group_9">
<g id="Group_10">
<path id="Vector_5" d="M33.5304 71.2756C31.0476 69.4066 28.8412 67.2455 26.1417 65.6002C25.6078 65.2643 24.7669 65.493 24.3535 66.0298C23.9214 66.5757 24.0551 67.2836 24.6078 67.6104C27.3073 69.2556 29.5137 71.4168 31.9965 73.2857C32.5006 73.6559 33.4012 73.3587 33.7847 72.8561C34.2201 72.269 34.0157 71.6548 33.5304 71.2756Z" fill="#DDDDDD"/>
</g>
</g>
<g id="Group_11">
<g id="Group_12">
<g id="Group_13">
<path id="Vector_6" d="M13.2986 37.3874C33.351 47.5521 63.6746 51.795 85.9692 37.2416C86.6074 36.8337 86.5068 36.0503 86.1986 35.6052C82.5351 30.3854 75.6709 27.3286 69.6077 24.7756C62.9054 21.9575 56.224 19.9018 48.5614 19.2718C40.8723 18.6349 33.7494 19.4077 26.1441 22.1573C22.2341 23.5741 18.4341 25.3141 14.673 27.1344C12.9993 27.9444 11.3145 28.7795 9.64857 29.6056C8.47157 30.195 7.01657 30.6416 6.16991 31.6259C5.84163 32.0027 5.79379 32.7191 6.17605 33.0294C8.32442 34.7828 10.9303 35.8989 13.2986 37.3874C14.5647 38.1812 16.1064 36.187 14.8402 35.3933C12.6624 34.0107 10.1751 32.9957 8.1764 31.4076C8.17477 31.8838 8.18418 32.3349 8.18255 32.8111C8.71974 32.1946 11.0897 31.3844 12.0112 30.9384C13.5831 30.1579 15.155 29.3773 16.7424 28.6289C20.1353 27.0067 23.5669 25.4648 27.104 24.1888C34.3741 21.5618 41.2726 20.9966 48.5909 21.6347C55.8904 22.2819 62.273 24.3436 68.6486 27.0623C74.3508 29.4928 80.7322 32.3672 84.1683 37.2613C84.2485 36.7074 84.3176 36.1788 84.3977 35.6249C73.6706 42.619 60.6529 44.6402 48.5906 44.0793C36.5737 43.5162 24.8781 40.4997 14.848 35.4094C13.4923 34.7184 11.9507 36.7125 13.2986 37.3874Z" fill="#DDDDDD"/>
</g>
</g>
<g id="Group_14">
<g id="Group_15">
<path id="Vector_7" d="M9.89974 33.2892C23.5593 32.0668 37.0778 32.2796 50.4324 33.3046C55.9319 33.7334 61.4841 33.8395 67.0045 34.1196C72.5514 34.4066 78.301 34.8728 83.1595 36.9985C84.5405 37.598 86.0899 35.6199 84.7012 35.0044C75.1592 30.8268 63.285 31.9973 52.6114 31.1407C38.669 30.004 24.5249 29.6978 10.2456 30.9824C8.6242 31.1332 8.27836 33.44 9.89974 33.2892Z" fill="#DDDDDD"/>
</g>
</g>
<g id="Group_16">
<g id="Group_17">
<path id="Vector_8" d="M76.4281 36.8493C62.5943 38.671 48.4201 40.7962 35.0001 38.7727C33.4457 38.5345 32.4556 40.7569 34.0287 40.9861C47.9038 43.0865 62.43 40.9692 76.7474 39.0917C78.3831 38.8746 78.045 36.6413 76.4281 36.8493Z" fill="#DDDDDD"/>
</g>
</g>
<g id="Group_18">
<g id="Group_19">
<path id="Vector_9" d="M58.7406 26.7275C51.0208 25.4517 43.1371 25.8994 35.1119 26.5345C33.4827 26.6692 33.1369 28.976 34.766 28.8413C42.5455 28.2261 50.262 27.7207 57.7692 28.9409C59.3314 29.1952 60.3027 26.9818 58.7406 26.7275Z" fill="#DDDDDD"/>
</g>
</g>
<g id="Group_20">
<g id="Group_21">
<path id="Vector_10" d="M32.0248 35.1767C28.6238 34.6237 25.3507 33.7117 21.8549 33.4424C21.2073 33.3992 20.4919 33.9832 20.4085 34.5782C20.3374 35.2465 20.8083 35.6921 21.4903 35.7583C22.3537 35.8159 22.998 35.9002 23.7752 36.0194C24.6055 36.1524 25.4248 36.3106 26.244 36.4688C27.8372 36.7873 29.4006 37.14 31.0158 37.4082C31.6491 37.5177 32.4291 37.2591 32.6707 36.6073C32.9324 36.0449 32.7112 35.3001 32.0248 35.1767Z" fill="#DDDDDD"/>
</g>
</g>
</g>
</g>
</svg>
